<svg width="44" height="38" viewBox="0 0 44 38" fill="none" xmlns="http://www.w3.org/2000/svg">
<path fill-rule="evenodd" clip-rule="evenodd" d="M23.7169 24.3558C24.8386 22.5492 25.3301 20.4409 25.1187 18.3428C25.0205 17.3687 25.2341 16.3577 25.7943 15.4555C27.1872 13.2121 30.198 12.4864 32.5137 13.8356C34.8293 15.185 35.5786 18.1018 34.1857 20.345C33.6256 21.2473 32.8038 21.9039 31.8707 22.279C29.859 23.0813 28.1673 24.4896 27.046 26.2956C26.9385 26.463 26.8333 26.6325 26.7285 26.8013C25.6068 28.6079 25.1154 30.7162 25.3267 32.8143C25.4249 33.7884 25.2113 34.7994 24.6511 35.7017C23.2582 37.9449 20.2474 38.6707 17.9318 37.3215C15.6161 35.9721 14.8668 33.0553 16.2597 30.812C16.8199 29.9099 17.6416 29.2531 18.5747 28.878C20.5865 28.0759 22.2781 26.6676 23.3994 24.8615C23.5069 24.6942 23.6121 24.5246 23.7169 24.3558ZM8.15767 24.3307C9.27932 22.5242 9.77074 20.4158 9.55946 18.3177C9.46112 17.3437 9.6749 16.3326 10.235 15.4305C11.6278 13.1871 14.6387 12.4613 16.9544 13.8106C19.2701 15.1599 20.0192 18.0767 18.6265 20.32C18.0663 21.2222 17.2444 21.8789 16.3114 22.254C14.2997 23.0563 12.608 24.4646 11.4868 26.2705C11.3793 26.4379 11.2741 26.6074 11.1693 26.7763C10.0476 28.5828 9.55608 30.6911 9.76749 32.7893C9.8657 33.7633 9.65204 34.7744 9.0919 35.6765C7.699 37.9199 4.68816 38.6457 2.37252 37.2964C0.0568837 35.947 -0.692424 33.0303 0.700482 30.787C1.26062 29.8849 2.08239 29.2281 3.0155 28.853C5.02714 28.0508 6.71879 26.6425 7.84019 24.8364C7.94752 24.6691 8.05284 24.4996 8.15767 24.3307ZM39.572 29.0534C42.0158 29.0534 44 30.9756 44 33.343C44 35.7106 42.0158 37.6328 39.572 37.6328C37.1281 37.6328 35.1439 35.7106 35.1439 33.343C35.1439 30.9756 37.1281 29.0534 39.572 29.0534ZM22.2508 0C24.6947 0 26.6788 1.92203 26.6788 4.28962C26.6788 6.65721 24.6947 8.57936 22.2508 8.57936C19.8068 8.57936 17.8228 6.65721 17.8228 4.28962C17.8228 1.92203 19.8068 0 22.2508 0Z" fill="#2FAA94"/>
</svg>
