<?xml version="1.0" standalone="no"?>
<!DOCTYPE svg PUBLIC "-//W3C//DTD SVG 20010904//EN"
 "http://www.w3.org/TR/2001/REC-SVG-20010904/DTD/svg10.dtd">
<svg version="1.0" xmlns="http://www.w3.org/2000/svg"
 width="260.000000pt" height="260.000000pt" viewBox="0 0 260.000000 260.000000"
 preserveAspectRatio="xMidYMid meet">
<metadata>
Created by potrace 1.11, written by Peter Selinger 2001-2013
</metadata>
<g transform="translate(0.000000,260.000000) scale(0.100000,-0.100000)"
fill="#000000" stroke="none">
<path d="M1237 2146 c-85 -31 -139 -108 -139 -196 1 -77 38 -136 117 -185 49
-30 148 -27 208 8 53 32 92 91 102 154 22 150 -139 272 -288 219z"/>
<path d="M855 1508 c-68 -25 -124 -77 -146 -134 -6 -16 -12 -76 -14 -134 -2
-58 -10 -128 -19 -155 -15 -49 -71 -148 -111 -197 -32 -39 -115 -98 -183 -131
-78 -37 -126 -91 -142 -159 -55 -227 220 -380 393 -219 54 49 69 93 72 215 4
125 23 194 82 282 63 97 117 143 231 199 77 38 103 62 131 125 48 106 2 239
-102 291 -48 25 -148 34 -192 17z"/>
<path d="M1603 1503 c-24 -8 -58 -30 -77 -48 -57 -55 -69 -89 -73 -200 -2 -55
-8 -120 -14 -145 -32 -139 -147 -279 -281 -344 -125 -60 -174 -131 -170 -243
3 -77 63 -158 144 -193 120 -51 264 7 315 128 8 19 14 72 15 130 1 102 16 170
51 237 63 116 137 188 254 244 101 49 150 114 157 204 10 129 -90 236 -224
242 -30 2 -74 -4 -97 -12z"/>
<path d="M2086 733 c-115 -34 -177 -169 -127 -278 83 -179 351 -160 402 29 30
113 -39 226 -156 254 -50 12 -60 12 -119 -5z"/>
</g>
</svg>
